<svg xmlns="http://www.w3.org/2000/svg" xmlns:xlink="http://www.w3.org/1999/xlink" width="288" height="288" viewBox="0 0 288 288"><defs><style>.a{fill:#fff;}.b{clip-path:url(#a);}</style><clipPath id="a"><rect class="a" width="288" height="288" transform="translate(0)"/></clipPath></defs><g transform="translate(-0.002)"><g class="b" transform="translate(0.002)"><g transform="translate(-272.123 -312.12)"><path class="a" d="M71.125,61.186A71.374,71.374,0,0,1,208.776,74.325c.4.023.794.058,1.2.092,1.551.138,3.124.323,4.711.553.517.081,1.033.161,1.551.253q2.241.38,4.378.865a3.582,3.582,0,0,1,.046.369,1.791,1.791,0,0,0-.035-.357q-.086-.831-.207-1.66c-.079-.611-.172-1.21-.264-1.81a2.489,2.489,0,0,0-.046-.288c-.092-.634-.206-1.257-.321-1.879-.069-.392-.15-.795-.23-1.187-.079-.415-.16-.831-.252-1.233-.173-.808-.356-1.614-.552-2.41-.126-.518-.264-1.037-.4-1.555a.016.016,0,0,1,0-.023c-.183-.634-.356-1.267-.54-1.9s-.391-1.279-.585-1.912c-.506-1.579-1.058-3.147-1.654-4.679q-.672-1.73-1.414-3.424c-.689-1.556-1.413-3.077-2.183-4.575-.241-.473-.494-.934-.735-1.4-.311-.576-.632-1.152-.954-1.729q-1.465-2.557-3.1-5c-.585-.864-1.183-1.728-1.793-2.57-.493-.68-1-1.348-1.5-2Q202.21,32.7,200.4,30.645c-1.081-1.21-2.183-2.4-3.32-3.55-.448-.461-.908-.91-1.379-1.359s-.942-.9-1.413-1.336c-.954-.877-1.93-1.729-2.918-2.56-.494-.415-1-.829-1.506-1.233-.46-.369-.93-.737-1.4-1.1a2.1,2.1,0,0,1-.242-.2c-.483-.357-.965-.714-1.447-1.06-.529-.392-1.058-.76-1.6-1.129s-1.068-.738-1.608-1.084c-.379-.253-.758-.507-1.149-.737-1.264-.806-2.551-1.568-3.86-2.305-.552-.311-1.127-.622-1.689-.922-.012-.012-.023-.012-.035-.023-.575-.3-1.15-.6-1.735-.888s-1.172-.576-1.758-.852c-.506-.242-1-.461-1.506-.692-.7-.31-1.389-.611-2.1-.9-.494-.207-1-.4-1.5-.6-.356-.138-.7-.276-1.058-.4q-.759-.294-1.516-.553c-1.965-.691-3.964-1.314-5.986-1.844-.506-.15-1.011-.276-1.529-.4-.631-.161-1.287-.311-1.93-.449s-1.287-.288-1.931-.415-1.3-.242-1.953-.357-1.31-.22-1.977-.312a82.154,82.154,0,0,0-12.1-.887c-.736,0-1.46.012-2.183.035-.494.012-.988.023-1.483.046q-1.379.069-2.758.173h-.068l-1.563.138c-.367.046-.735.081-1.1.115-.138.012-.288.035-.425.058-.6.069-1.195.138-1.781.219-.679.092-1.356.2-2.022.3a.134.134,0,0,1-.069.013h-.012c-.1.022-.2.033-.288.045-.114.023-.229.046-.344.059l-.517.1c-.252.036-.5.082-.746.139a1.761,1.761,0,0,0-.252.046c-.207.033-.414.069-.609.115a2.341,2.341,0,0,0-.275.058c-.367.069-.723.138-1.081.219s-.723.15-1.079.242l-.552.138c-.46.1-.919.219-1.367.346-.241.046-.471.115-.712.173-.264.069-.529.138-.781.219-.1.023-.2.058-.3.081-.357.1-.725.207-1.081.311a2.068,2.068,0,0,0-.252.081c-.54.161-1.069.324-1.609.5-.126.047-.264.081-.391.127-.712.232-1.412.473-2.114.715-.356.127-.712.265-1.056.392-.679.253-1.356.518-2.023.783s-1.333.553-2,.842c-.356.15-.7.311-1.058.472s-.7.323-1.056.484A80.574,80.574,0,0,0,86.772,20.456c-1.86,1.475-3.653,3.042-5.353,4.691-.46.438-.919.876-1.367,1.325l-.081.081c-.471.472-.954.957-1.414,1.441-.206.207-.4.426-.6.634-.173.184-.344.369-.506.543-.012.01-.023.033-.035.045-.6.645-1.172,1.28-1.746,1.948-.8.933-1.6,1.856-2.355,2.824-.448.566-.885,1.13-1.321,1.706-.127.173-.242.334-.369.5q-.551.726-1.068,1.487c-.1.138-.2.276-.287.415-.425.588-.827,1.175-1.23,1.786-.631.969-1.241,1.937-1.837,2.917-.3.5-.586.991-.873,1.486-.242.415-.471.842-.713,1.257-.321.588-.631,1.175-.941,1.774-.276.52-.529,1.026-.782,1.545-.539,1.071-1.045,2.167-1.539,3.273-.206.484-.414.98-.621,1.476-.229.53-.447,1.071-.654,1.613-.184.462-.367.923-.54,1.384-.229.622-.46,1.256-.677,1.89q-.276.829-.552,1.659c-.115.346-.218.692-.321,1.038H71.125Z" transform="translate(281.09 312.5)"/><path class="a" d="M59.006,53.443c-.058.207-.127.426-.184.645.058-.219.127-.438.2-.645Z" transform="translate(281.064 320.243)"/><path class="a" d="M135.435,211.776a17.5,17.5,0,0,0,15-8.518,17.721,17.721,0,0,0,2.195-5.728c.035-.184.058-.357.092-.541.149-.91.229-120.957.229-120.957a17.577,17.577,0,0,0-17.521-17.588H17.532A17.587,17.587,0,0,0,0,76.033V194.2a17.577,17.577,0,0,0,17.532,17.576ZM11.489,194.2V76.033a6.061,6.061,0,0,1,6.043-6.063h117.9a6.061,6.061,0,0,1,6.043,6.063V194.2a6.05,6.05,0,0,1-6.043,6.05H17.532A6.05,6.05,0,0,1,11.489,194.2Z" transform="translate(272.123 321.004)"/><path class="a" d="M94.584,161.486a19.9,19.9,0,0,0,3.963-12.8v-.046a19.731,19.731,0,0,0-.321-4.472,20.358,20.358,0,0,0-2.183-6.177,20.955,20.955,0,0,0-4.757-5.44l-.218-.184a19.018,19.018,0,0,0-2.01-1.418,77.889,77.889,0,0,0-12.075-5.97,9.512,9.512,0,0,0-1.344-.541l-.311-.127c-4.1-1.706-7.273-3.113-9.41-4.173a17.852,17.852,0,0,1-5.307-3.8,7.5,7.5,0,0,1-2.091-5.255,8.086,8.086,0,0,1,4.848-7.376c.127-.056.265-.127.414-.183a22.9,22.9,0,0,1,5.584-1.81,23.333,23.333,0,0,1,5.618-.461c.184,0,.4,0,.609.012a46.028,46.028,0,0,1,10.558,1.325,33.512,33.512,0,0,1,8.744,3.435v-13.4a59.979,59.979,0,0,0-20.3-2.777c-1.183-.012-2.287.012-3.309.081a46.054,46.054,0,0,0-5.687.668,44.074,44.074,0,0,0-5.5,1.326c-.414.1-.816.23-1.206.357A25.24,25.24,0,0,0,47.523,99.7,18.144,18.144,0,0,0,43.3,111.951a19.078,19.078,0,0,0,2.275,9.531,21.237,21.237,0,0,0,6.559,6.938,63.683,63.683,0,0,0,11.283,5.912c5.193,2.2,8.915,3.873,11.4,5.117a22.751,22.751,0,0,1,6.169,4.311,8.064,8.064,0,0,1,2.356,5.751,8.347,8.347,0,0,1-4.228,7.445,22.531,22.531,0,0,1-11.9,2.536,46.008,46.008,0,0,1-12.9-2.075,37.183,37.183,0,0,1-10.833-5V166.58a48.445,48.445,0,0,0,10.983,3.192A80.374,80.374,0,0,0,68.5,170.914a49.053,49.053,0,0,0,15.418-2.248A22.206,22.206,0,0,0,94.584,161.486Z" transform="translate(278.702 325.769)"/><path class="a" d="M74.98,89.346c-1.506-.069-3.022-.069-4.539-.012C71.958,89.277,73.474,89.288,74.98,89.346Z" transform="translate(282.83 325.693)"/><path class="a" d="M203.92,194.394a60.38,60.38,0,0,0-57.951-52v11.536a49.043,49.043,0,0,1,46.99,46.193c.058.922.081,1.856.081,2.8,0,1-.035,1.994-.092,2.985a46.949,46.949,0,0,1-.689,5.717v.012a48.477,48.477,0,0,1-1.367,5.67,48.894,48.894,0,0,1-95.636-12.528H83.766a60.379,60.379,0,0,0,118.971,12.8c.471-1.913.862-3.862,1.149-5.843a57.235,57.235,0,0,0,.563-5.82c.058-.992.081-2,.081-3,0-.933-.023-1.866-.069-2.789C204.368,198.2,204.195,196.285,203.92,194.394Z" transform="translate(284.855 333.764)"/><path class="a" d="M267,143.482c-.046-1.291-.115-2.559-.229-3.827-.046-.553-.1-1.094-.161-1.649s-.115-1.083-.2-1.624q-.188-1.417-.414-2.8c-.264-1.568-.562-3.112-.93-4.633-.1-.438-.207-.887-.323-1.325-.126-.577-.275-1.142-.448-1.706-.31-1.129-.643-2.248-1.01-3.365s-.747-2.213-1.161-3.309c-.206-.553-.414-1.094-.631-1.624-.437-1.084-.885-2.144-1.379-3.193-.241-.53-.494-1.048-.746-1.578q-.328-.691-.689-1.384c-.265-.541-.552-1.083-.851-1.613-.195-.37-.4-.738-.608-1.107-.414-.76-.862-1.509-1.321-2.258-.264-.439-.54-.888-.827-1.326s-.563-.876-.85-1.314c-.081-.115-.161-.23-.23-.346-.5-.749-1.033-1.5-1.562-2.225-.908-1.267-1.873-2.5-2.86-3.711-.563-.68-1.138-1.359-1.723-2.017a76.557,76.557,0,0,0-32.929-21.921c-1.424-.484-2.872-.922-4.332-1.325-.494-.127-.976-.253-1.47-.38h-.012l-.725-.173c-.241-.058-.47-.127-.712-.173-.62-.138-1.241-.276-1.862-.4-.206-.046-.414-.081-.62-.127l-1.9-.347c-1.424-.242-2.883-.449-4.343-.6q-.344-.052-.689-.069c-.252-.035-.517-.058-.77-.081-1.919-.173-3.849-.276-5.8-.3-.367-.012-.735-.012-1.1-.012-.735,0-1.471.012-2.195.035-.448.012-.9.023-1.344.058-1.068.035-2.137.1-3.193.207-.621.046-1.23.115-1.85.184-.046,0-.1.012-.15.012-.425.046-.839.1-1.264.161-.586.081-1.16.161-1.746.253-.747.116-1.481.242-2.218.381a.514.514,0,0,0-.183.033c-.563.1-1.115.209-1.666.335-.334.058-.667.138-1,.219-.666.138-1.333.3-2,.472-.494.127-.988.253-1.471.392-1.137.311-2.252.645-3.366,1.015-1.172.38-2.321.783-3.47,1.221-.643.253-1.287.507-1.93.772q-2.792,1.159-5.47,2.5a77.176,77.176,0,0,0-18.313,13.023V108.4a64.9,64.9,0,0,1,52.827-27.234c.367,0,.746,0,1.114.013,1.931.035,3.849.15,5.734.346q2.879.311,5.687.864a57.649,57.649,0,0,1,5.641,1.384h.012c1.9.553,3.757,1.187,5.572,1.912a65.179,65.179,0,0,1-12.386,124.76c.012.15.012.311.023.461.058,1.015.081,2.052.081,3.077,0,.806-.012,1.568-.046,2.294-.012.334-.023.668-.046,1-.079,1.67-.218,3.307-.414,4.9l.483-.069c.586-.092,1.173-.184,1.758-.288.483-.081.977-.173,1.46-.265s.987-.2,1.481-.311c.552-.115,1.115-.242,1.666-.38s1.081-.265,1.609-.4c.677-.173,1.356-.369,2.022-.554.54-.16,1.068-.323,1.608-.5,1.138-.369,2.275-.749,3.4-1.163.644-.242,1.287-.484,1.919-.737s1.275-.53,1.907-.8,1.253-.553,1.873-.841c1.081-.507,2.16-1.038,3.206-1.591a77.191,77.191,0,0,0,35.328-38.725c.253-.634.517-1.267.759-1.912.252-.669.494-1.337.735-2.006.2-.564.391-1.142.575-1.706.172-.53.333-1.06.493-1.59a1.424,1.424,0,0,1,.069-.209c.15-.541.311-1.094.46-1.636a.5.5,0,0,1,.012-.058c.311-1.13.586-2.271.85-3.411.012-.069.023-.128.035-.185.1-.472.207-.945.3-1.417.15-.715.276-1.441.4-2.167.091-.53.172-1.06.252-1.591.046-.334.092-.657.138-.991q.1-.674.172-1.349c.058-.5.115-1,.161-1.509.046-.427.081-.852.115-1.28.068-.818.126-1.636.16-2.454.023-.45.046-.911.046-1.361.035-.808.046-1.614.046-2.42C267.06,145.361,267.049,144.415,267,143.482Z" transform="translate(293.063 322.705)"/></g></g></g></svg>