<svg xmlns="http://www.w3.org/2000/svg" xmlns:xlink="http://www.w3.org/1999/xlink" width="1920" height="1270" viewBox="0 0 1920 1270"><defs><style>.a{fill:#fff;stroke:#707070;}.b,.f{fill:none;stroke:#949ba2;stroke-width:3px;}.c{clip-path:url(#a);}.d{opacity:0.3;}.e{clip-path:url(#b);}.f{stroke-miterlimit:10;}.g{fill:#949ba2;opacity:0.1;}</style><clipPath id="a"><rect class="a" width="1920" height="1270" transform="translate(0 1690)"/></clipPath><clipPath id="b"><rect class="b" width="979" height="1496.405"/></clipPath></defs><g class="c" transform="translate(0 -1690)"><g class="d" transform="translate(-141 1634.492)"><g class="e"><path class="f" d="M38.08.247S165.33,224.808,479.717,184.886c352.5-44.762,504.016,214.582,416.686,391.735S421.147,791.2,475.383,1078.142,58.041,1494.828,58.041,1494.828" transform="translate(57.161 0.371)"/><path class="f" d="M.17,104s268.708,97.312,536.067,62.379S834.866,288.491,803.6,351.017c-64.873,129.746-411.7,154.7-434.151,364.289-16.882,157.553,117.27,369.278-187.135,481.559" transform="translate(0.255 156.11)"/><path class="f" d="M24.951,3.4S299.606-31.641,250.578,123.17c-56.194,177.444-188.2,174.66-63.442,399.219C231.507,602.261,244.522,924.106,0,859.233" transform="translate(118.125 355.387) rotate(3)"/><path class="f" d="M431.748,231.226c0,37.206-55.3,67.369-123.508,67.369s-123.51-30.163-123.51-67.369,55.3-67.369,123.51-67.369S431.748,194.02,431.748,231.226Z" transform="translate(277.293 245.961)"/></g></g><path class="g" d="M-16,1090.75c57.126-74.083,146.234-124.456,240.183-124.714,40.508-.111,80.945,7.849,121.329,4.7a223.923,223.923,0,0,0,147.366-72.6s25.9-48.813,92.178-162.427,194.089-189.356,321.9-160.952,174.822-4.838,174.822-4.838c44.229-25.927,81.087-70.921,81.951-122.182.833-49.374-30.775-93.437-39.033-142.123-13.579-80.043,41.93-161.17,116.153-194.068,42.207-18.708,88.616-24.036,134.762-19.873V1090.75Z" transform="translate(547.5 1869.25)"/></g></svg>