<svg xmlns="http://www.w3.org/2000/svg" width="288" height="292" viewBox="0 0 288 292"><defs><style>.a{fill:none;}.b{fill:#fff;}</style></defs><g transform="translate(-0.059 0.071)"><rect class="a" width="288" height="292" transform="translate(0.059 -0.071)"/><path class="b" d="M-490.151,23.868l-79.3-22.524-.023-.011c-.047-.012-.105-.023-.151-.036A32.161,32.161,0,0,0-579.064.006a35.526,35.526,0,0,0-17.388,4.61l-85.369,48.8A34.163,34.163,0,0,0-699,83.045V209.824a20.7,20.7,0,0,0,20.6,20.753h.047a20.588,20.588,0,0,0,9.838-2.5l23.16-12.523a26.042,26.042,0,0,0,13.461-22.861V101.632A14.47,14.47,0,0,1-622.446,88.1l66.81-24.2V218.949h-82.443a20.733,20.733,0,0,0-20.477,20.963,20.884,20.884,0,0,0,10.315,17.728l52.534,29.844A34.444,34.444,0,0,0-578.669,292h.035a33.535,33.535,0,0,0,9.42-1.362c.023-.012.057-.012.081-.023l79.04-22.581A34.323,34.323,0,0,0-465.4,235.245V56.715A34.244,34.244,0,0,0-490.151,23.868Zm13.136,211.365a22.621,22.621,0,0,1-16.273,21.615l-54.2,15.481-8.142,2.328-5.947,1.7,2.323-6.716.012-.022,3.484-10.023,5.924-17.087,5.493-15.83a5.937,5.937,0,0,0,.314-1.91V55.6a5.716,5.716,0,0,0-.488-2.328l-5.319-12.2-10.977-25.177,4.949,1.409h.012l8.2,2.328,54.324,15.435a22.557,22.557,0,0,1,16.308,21.649ZM-578.669,280.36a22.812,22.812,0,0,1-11.3-3l-52.476-29.81a9.147,9.147,0,0,1-4.5-7.764,9.079,9.079,0,0,1,8.921-9.2h80.027l-17.167,49.492a24.734,24.734,0,0,1-3.484.279ZM-643.5,192.7a14.373,14.373,0,0,1-7.41,12.618l-23.115,12.513-.012.012a9.342,9.342,0,0,1-4.332,1.094,9.059,9.059,0,0,1-9.013-9.091V83.045a22.524,22.524,0,0,1,11.313-19.521l85.359-48.782a23.86,23.86,0,0,1,11.685-3.1h.081a22.368,22.368,0,0,1,3.74.314l17.574,40.274-68.783,24.92A26.16,26.16,0,0,0-643.5,101.621Z" transform="translate(726.058 -0.071)"/></g></svg>