<svg xmlns="http://www.w3.org/2000/svg" width="88" height="90.023" viewBox="0 0 88 90.023"><defs><style>.a{fill:none;}.b{fill:#f7653b;}</style></defs><g transform="translate(-0.059 0.373)"><rect class="a" width="88" height="90" transform="translate(0.059 -0.373)"/><path class="b" d="M-634.827,7.334-659.192.413l-.007,0L-659.245.4a9.882,9.882,0,0,0-2.9-.4,10.916,10.916,0,0,0-5.343,1.417l-26.232,15a10.5,10.5,0,0,0-5.279,9.1V64.473a6.36,6.36,0,0,0,6.331,6.377h.014a6.326,6.326,0,0,0,3.023-.769l7.117-3.848a8,8,0,0,0,4.136-7.025V31.228a4.446,4.446,0,0,1,2.9-4.16l20.529-7.436V67.276h-25.332a6.371,6.371,0,0,0-6.292,6.441,6.417,6.417,0,0,0,3.169,5.447l16.142,9.17a10.583,10.583,0,0,0,5.236,1.388h.011a10.3,10.3,0,0,0,2.894-.418c.007,0,.018,0,.025-.007l24.287-6.938a10.547,10.547,0,0,0,7.588-10.075V17.426A10.522,10.522,0,0,0-634.827,7.334Zm4.036,64.946a6.951,6.951,0,0,1-5,6.642l-16.653,4.757-2.5.715-1.828.522.714-2.064,0-.007,1.071-3.08,1.82-5.25,1.688-4.864a1.825,1.825,0,0,0,.1-.587V17.083a1.756,1.756,0,0,0-.15-.715l-1.634-3.748-3.373-7.736,1.521.433h0l2.519.715,16.692,4.743a6.931,6.931,0,0,1,5.011,6.652Zm-31.236,13.866a7.009,7.009,0,0,1-3.473-.922l-16.124-9.16A2.81,2.81,0,0,1-683,73.679a2.79,2.79,0,0,1,2.741-2.826h24.59l-5.275,15.207a7.6,7.6,0,0,1-1.07.086Zm-19.922-26.935a4.416,4.416,0,0,1-2.277,3.877l-7.1,3.845,0,0a2.871,2.871,0,0,1-1.331.336,2.784,2.784,0,0,1-2.77-2.793V25.517a6.921,6.921,0,0,1,3.476-6L-665.727,4.53a7.332,7.332,0,0,1,3.59-.951h.025a6.873,6.873,0,0,1,1.149.1l5.4,12.375L-676.7,23.707a8.038,8.038,0,0,0-5.25,7.518Z" transform="translate(707.355 -0.073)"/></g></svg>