<svg xmlns="http://www.w3.org/2000/svg" xmlns:xlink="http://www.w3.org/1999/xlink" width="89" height="89" viewBox="0 0 89 89"><defs><style>.a{fill:#11afa4;}.b{clip-path:url(#a);}</style><clipPath id="a"><rect class="a" width="89" height="89" transform="translate(0 0)"/></clipPath></defs><g transform="translate(-0.002)"><g class="b" transform="translate(0.002)"><g transform="translate(0 0.89)"><path class="a" d="M62.741,20.636A22.057,22.057,0,0,1,105.28,24.7c.125.007.245.018.37.028.479.043.965.1,1.456.171.16.025.319.05.479.078q.693.117,1.353.267a1.107,1.107,0,0,1,.014.114.553.553,0,0,0-.011-.11q-.027-.257-.064-.513c-.025-.189-.053-.374-.082-.559a.771.771,0,0,0-.014-.089c-.028-.2-.064-.388-.1-.581-.021-.121-.046-.246-.071-.367s-.049-.257-.078-.381c-.053-.25-.11-.5-.171-.745-.039-.16-.082-.32-.124-.481a0,0,0,0,1,0-.007c-.057-.2-.11-.392-.167-.588s-.121-.4-.181-.591c-.156-.488-.327-.973-.511-1.446q-.208-.535-.437-1.058c-.213-.481-.437-.951-.675-1.414-.074-.146-.153-.289-.227-.431-.1-.178-.2-.356-.295-.534q-.453-.79-.959-1.546c-.181-.267-.366-.534-.554-.794-.152-.21-.309-.417-.465-.619q-.517-.668-1.076-1.3c-.334-.374-.675-.741-1.026-1.1-.138-.142-.281-.281-.426-.42s-.291-.278-.437-.413c-.295-.271-.6-.534-.9-.791-.153-.128-.309-.256-.465-.381s-.287-.228-.433-.339a.649.649,0,0,1-.075-.061c-.149-.11-.3-.221-.447-.328s-.327-.235-.494-.349-.33-.228-.5-.335c-.117-.078-.234-.157-.355-.228-.391-.249-.788-.485-1.193-.712-.171-.1-.348-.192-.522-.285,0,0-.007,0-.011-.007-.178-.093-.355-.185-.536-.274S94.511,5,94.33,4.915c-.156-.075-.309-.142-.465-.214-.216-.1-.429-.189-.65-.278-.153-.064-.309-.125-.465-.185-.11-.043-.217-.085-.327-.125q-.234-.091-.468-.171c-.607-.214-1.225-.406-1.85-.57-.156-.046-.313-.085-.472-.125-.2-.05-.4-.1-.6-.139s-.4-.089-.6-.128-.4-.075-.6-.11-.4-.068-.611-.1A25.388,25.388,0,0,0,83.487,2.5c-.228,0-.451,0-.675.011-.153,0-.305.007-.458.014q-.426.021-.852.053h-.021L81,2.621c-.114.014-.227.025-.341.036-.043,0-.089.011-.131.018-.185.021-.369.043-.55.068-.21.028-.419.061-.625.093a.042.042,0,0,1-.021,0h0c-.032.007-.061.01-.089.014s-.071.014-.106.018l-.16.032c-.078.011-.156.025-.231.043a.544.544,0,0,0-.078.014c-.064.01-.128.021-.188.036a.724.724,0,0,0-.085.018c-.114.021-.224.043-.334.068s-.224.046-.334.075L77.55,3.2c-.142.032-.284.068-.423.107-.074.014-.146.036-.22.053s-.163.043-.241.068c-.032.007-.061.018-.092.025l-.334.1a.639.639,0,0,0-.078.025c-.167.05-.33.1-.5.153-.039.015-.082.025-.121.039-.22.072-.436.146-.653.221-.11.039-.22.082-.326.121-.21.078-.419.16-.625.242s-.412.171-.618.26c-.11.046-.216.1-.327.146l-.326.15a24.9,24.9,0,0,0-5.092,3.145c-.575.456-1.129.94-1.654,1.45-.142.135-.284.271-.423.409l-.025.025c-.146.146-.295.3-.437.445-.064.064-.124.132-.184.2l-.156.168s-.007.01-.011.014c-.185.2-.362.4-.54.6-.248.288-.493.574-.728.873-.138.175-.273.349-.408.527-.039.053-.075.1-.114.153q-.17.224-.33.46c-.032.043-.061.085-.089.128-.131.182-.256.363-.38.552-.2.3-.383.6-.568.9-.093.153-.181.306-.27.459-.075.128-.146.26-.22.388-.1.182-.2.363-.291.548-.085.161-.163.317-.242.477-.167.331-.323.67-.476,1.011-.064.15-.128.3-.192.456s-.138.331-.2.5c-.057.143-.114.285-.167.428-.071.192-.142.388-.209.584l-.171.513c-.036.107-.067.214-.1.321h3.749Z" transform="translate(-37.991 -2.5)"/><path class="a" d="M58.879,53.443c-.018.064-.039.132-.057.2.018-.068.039-.135.061-.2Z" transform="translate(-37.881 -35.307)"/><path class="a" d="M41.853,105.829A5.408,5.408,0,0,0,46.49,103.2a5.476,5.476,0,0,0,.678-1.77c.011-.057.018-.11.028-.167.046-.281.071-37.379.071-37.379a5.432,5.432,0,0,0-5.414-5.435H5.418A5.435,5.435,0,0,0,0,63.88V100.4a5.432,5.432,0,0,0,5.418,5.431ZM3.55,100.4V63.88a1.873,1.873,0,0,1,1.868-1.874H41.853a1.873,1.873,0,0,1,1.868,1.874V100.4a1.87,1.87,0,0,1-1.868,1.87H5.418A1.87,1.87,0,0,1,3.55,100.4Z" transform="translate(0 -38.529)"/><path class="a" d="M59.138,111.951a6.149,6.149,0,0,0,1.225-3.957v-.014a6.1,6.1,0,0,0-.1-1.382,6.291,6.291,0,0,0-.675-1.909,6.476,6.476,0,0,0-1.47-1.681l-.067-.057a5.877,5.877,0,0,0-.621-.438,24.07,24.07,0,0,0-3.732-1.845,2.94,2.94,0,0,0-.415-.167l-.1-.039c-1.267-.527-2.247-.962-2.908-1.289A5.517,5.517,0,0,1,48.639,98a2.319,2.319,0,0,1-.646-1.624,2.5,2.5,0,0,1,1.5-2.279c.039-.017.082-.039.128-.057a7.076,7.076,0,0,1,1.726-.559,7.21,7.21,0,0,1,1.736-.142c.057,0,.124,0,.188,0a14.224,14.224,0,0,1,3.263.409,10.356,10.356,0,0,1,2.7,1.062V90.666a18.536,18.536,0,0,0-6.274-.858c-.366,0-.707,0-1.022.025a14.231,14.231,0,0,0-1.758.206,13.621,13.621,0,0,0-1.7.41c-.128.032-.252.071-.373.11a7.8,7.8,0,0,0-3.512,2.3,5.607,5.607,0,0,0-1.307,3.786,5.9,5.9,0,0,0,.7,2.945,6.563,6.563,0,0,0,2.027,2.144,19.68,19.68,0,0,0,3.487,1.827c1.6.68,2.755,1.2,3.522,1.581a7.031,7.031,0,0,1,1.906,1.332,2.492,2.492,0,0,1,.728,1.777,2.579,2.579,0,0,1-1.307,2.3,6.963,6.963,0,0,1-3.679.784,14.218,14.218,0,0,1-3.987-.641,11.491,11.491,0,0,1-3.348-1.546v4.377a14.971,14.971,0,0,0,3.394.986,24.838,24.838,0,0,0,4.342.353,15.159,15.159,0,0,0,4.765-.695A6.862,6.862,0,0,0,59.138,111.951Z" transform="translate(-27.876 -58.719)"/><path class="a" d="M71.844,89.309c-.465-.021-.934-.021-1.4,0C70.91,89.288,71.378,89.291,71.844,89.309Z" transform="translate(-45.364 -58.394)"/><path class="a" d="M120.9,158.463a18.659,18.659,0,0,0-17.909-16.07v3.565a15.156,15.156,0,0,1,14.521,14.275c.018.285.025.574.025.865,0,.31-.011.616-.028.922a14.508,14.508,0,0,1-.213,1.767v0a14.982,14.982,0,0,1-.423,1.752,15.11,15.11,0,0,1-29.554-3.872h-3.55a18.659,18.659,0,0,0,36.765,3.957c.146-.591.266-1.193.355-1.806a17.686,17.686,0,0,0,.174-1.8c.018-.307.025-.617.025-.926,0-.288-.007-.577-.021-.862C121.035,159.638,120.982,159.047,120.9,158.463Z" transform="translate(-53.945 -92.591)"/><path class="a" d="M177.7,92.459c-.014-.4-.036-.791-.071-1.183-.014-.171-.032-.338-.05-.509s-.036-.335-.061-.5q-.058-.438-.128-.865c-.082-.485-.174-.962-.287-1.432-.032-.135-.064-.274-.1-.409-.039-.178-.085-.353-.138-.527-.1-.349-.2-.695-.312-1.04s-.231-.684-.359-1.022c-.064-.171-.128-.338-.2-.5-.135-.335-.273-.663-.426-.987-.074-.164-.153-.324-.231-.488q-.1-.214-.213-.428c-.082-.167-.171-.335-.263-.5-.06-.114-.124-.228-.188-.342-.128-.235-.266-.466-.408-.7-.082-.136-.167-.274-.256-.41s-.174-.271-.263-.406c-.025-.036-.05-.071-.071-.107-.156-.231-.319-.463-.483-.687-.281-.392-.579-.773-.884-1.147-.174-.21-.352-.42-.533-.623a23.658,23.658,0,0,0-10.176-6.774c-.44-.15-.887-.285-1.339-.409l-.454-.117h0l-.224-.053c-.074-.018-.145-.039-.22-.053-.192-.043-.383-.085-.575-.125-.064-.014-.128-.025-.192-.039l-.586-.107c-.44-.075-.891-.139-1.342-.185-.071-.011-.142-.018-.213-.021s-.16-.018-.238-.025c-.593-.053-1.189-.085-1.793-.093-.114,0-.227,0-.341,0-.227,0-.455,0-.678.011-.138,0-.277.007-.415.018-.33.011-.66.032-.987.064-.192.014-.38.036-.572.057-.014,0-.032,0-.046,0-.131.014-.259.032-.391.05-.181.025-.359.05-.54.078-.231.036-.458.075-.685.118a.159.159,0,0,0-.057.01c-.174.032-.345.064-.515.1-.1.018-.206.043-.309.068-.206.043-.412.093-.618.146-.153.039-.305.078-.455.121-.351.1-.7.2-1.04.314-.362.117-.717.242-1.072.377-.2.078-.4.157-.6.239q-.863.358-1.69.773a23.85,23.85,0,0,0-5.659,4.025v5.4A20.057,20.057,0,0,1,154.086,73.2c.114,0,.231,0,.344,0,.6.011,1.189.046,1.772.107s1.179.153,1.758.267a17.814,17.814,0,0,1,1.743.428h0c.586.171,1.161.367,1.722.591a20.142,20.142,0,0,1-3.828,38.554c0,.046,0,.1.007.142.018.314.025.634.025.951,0,.249,0,.485-.014.709,0,.1-.007.206-.014.31-.025.516-.067,1.022-.128,1.513l.149-.021c.181-.028.362-.057.543-.089.149-.025.3-.053.451-.082s.305-.061.458-.1c.171-.036.345-.075.515-.117s.334-.082.5-.125c.209-.053.419-.114.625-.171.167-.049.33-.1.5-.153.352-.114.7-.231,1.051-.36.2-.075.4-.15.593-.228l.589-.246c.192-.085.387-.171.579-.26.334-.157.667-.321.991-.492a23.854,23.854,0,0,0,10.917-11.967c.078-.2.16-.392.235-.591s.153-.413.227-.62c.061-.174.121-.353.178-.527s.1-.328.152-.491a.439.439,0,0,1,.021-.064c.046-.167.1-.338.142-.506a.153.153,0,0,1,0-.018c.1-.349.181-.7.263-1.054,0-.021.007-.04.011-.057.032-.146.064-.292.092-.438.046-.221.085-.445.125-.67.028-.164.053-.328.078-.492.014-.1.028-.2.043-.306q.032-.208.053-.417c.018-.153.036-.31.05-.466.014-.132.025-.263.036-.4.021-.253.039-.506.049-.758.007-.139.014-.282.014-.42.011-.25.014-.5.014-.748C177.718,93.04,177.715,92.748,177.7,92.459Z" transform="translate(-88.718 -45.738)"/></g></g></g></svg>